<svg width="142" height="33" viewBox="0 0 142 33" fill="none" xmlns="http://www.w3.org/2000/svg">
<path d="M11.9374 23.7574C8.15765 22.3222 4.57473 18.5986 2.6061 13.4398C2.25175 12.5089 1.95645 11.5586 1.72021 10.6083C2.29112 9.07616 3.07857 7.64101 4.06289 6.36101C5.18501 4.88707 6.56306 3.62646 8.13796 2.61798C8.29545 2.52101 8.47263 2.67616 8.39388 2.83131C8.27577 3.06404 8.13796 3.31616 8.03953 3.54889C7.01584 5.7598 6.504 8.3004 6.54337 10.9768C6.58274 13.7501 7.19302 16.6592 8.39388 19.4907C8.43326 19.5877 8.47263 19.6846 8.512 19.7816C9.2404 21.4301 10.4413 22.8071 11.9374 23.7574Z" fill="#00B4CC"/>
<path d="M10.9532 28.3529C7.58684 28.4111 4.6142 26.685 2.92118 24.0862C2.92118 24.0862 2.92118 24.0668 2.90149 24.0668C2.6062 23.5626 2.33059 23.0195 2.09435 22.4765C2.09435 22.4571 2.07467 22.4571 2.07467 22.4377C1.28721 20.6729 0.834426 18.7335 0.735995 16.6971C0.735995 16.5614 0.735995 16.4256 0.716309 16.2898C0.716309 16.1541 0.716309 16.0183 0.716309 15.8826C0.735995 14.0401 1.07066 12.2559 1.68094 10.6074C1.91718 11.5577 2.19278 12.4886 2.56682 13.4389C4.55515 18.6171 8.11837 22.3408 11.8982 23.7565C13.0006 24.2995 13.9652 24.6292 14.792 24.862C15.9929 25.1917 16.1504 26.782 15.0283 27.3444C13.8274 27.965 12.4494 28.3335 10.9532 28.3529Z" fill="url(#paint0_linear_7236_31408)"/>
<path d="M26.4069 16.6191C27.0172 20.5755 25.4816 25.4628 21.879 29.71C21.2294 30.4858 20.5404 31.2034 19.812 31.8628C18.178 32.1343 16.5244 32.1731 14.9101 31.9404C13.0596 31.6882 11.2681 31.1452 9.59476 30.2919C9.43727 30.2143 9.49633 29.9816 9.67351 29.9622C9.94912 29.9622 10.2247 29.9428 10.4806 29.9234C12.9414 29.7101 15.4219 28.8955 17.7646 27.5573C20.186 26.161 22.4499 24.2022 24.3792 21.7779C24.4579 21.7004 24.517 21.6034 24.5761 21.5258C25.6588 20.0907 26.2888 18.384 26.4069 16.6191Z" fill="#00B4CC"/>
<path d="M30.935 15.1845C32.6477 18.0548 32.5886 21.4487 31.1121 24.1833C31.1121 24.1833 31.1121 24.2027 31.0924 24.2027C30.7971 24.7069 30.4625 25.2112 30.0884 25.6766C30.0884 25.696 30.0688 25.696 30.0688 25.696C28.8876 27.2281 27.4111 28.5857 25.659 29.6524C25.5409 29.7299 25.4228 29.7881 25.3047 29.8657C25.1865 29.9433 25.0684 30.0015 24.9306 30.079C23.2966 30.9711 21.5446 31.553 19.7925 31.8439C20.5012 31.1845 21.2099 30.4669 21.8595 29.6911C25.4425 25.4439 26.978 20.5566 26.3874 16.6002C26.3283 15.3978 26.1512 14.3893 25.9346 13.5748C25.6196 12.3918 26.978 11.4609 28.0017 12.1396C29.1829 12.9154 30.1869 13.9433 30.935 15.1845Z" fill="url(#paint1_linear_7236_31408)"/>
<path d="M12.9614 7.77795C16.1506 5.31492 21.2297 4.20946 26.7419 5.19855C27.7459 5.3731 28.7105 5.60583 29.6554 5.89674C30.6988 7.15734 31.5453 8.5731 32.1556 10.0664C32.8446 11.7731 33.258 13.5961 33.3171 15.4386C33.3171 15.6131 33.0809 15.6907 33.0021 15.5355C32.8643 15.3028 32.7068 15.0895 32.5493 14.8567C31.1516 12.8592 29.2027 11.1331 26.86 9.77552C24.4386 8.37916 21.584 7.40946 18.4933 6.9634C18.3949 6.94401 18.2767 6.92462 18.1783 6.92462C16.3868 6.71128 14.5757 7.00219 12.9614 7.77795Z" fill="#00B4CC"/>
<path d="M9.45717 4.59636C11.1502 1.72606 14.1622 0.0775758 17.312 0H17.3317C17.9223 0 18.5326 0.058182 19.1232 0.135758C19.1428 0.135758 19.1428 0.135758 19.1625 0.135758C21.1115 0.387879 23.0211 0.989091 24.8322 1.95879C24.9503 2.01697 25.0684 2.09455 25.2062 2.15273C25.3244 2.2303 25.4425 2.28849 25.5606 2.36606C27.1552 3.33576 28.5332 4.53818 29.6554 5.89576C28.7104 5.60485 27.7458 5.37212 26.7418 5.19758C21.2296 4.20849 16.1505 5.31394 12.9613 7.77697C11.9377 8.43636 11.1305 9.07636 10.5005 9.65818C9.59498 10.5115 8.13819 9.81333 8.21693 8.59152C8.31536 7.23394 8.70909 5.85697 9.45717 4.59636Z" fill="url(#paint2_linear_7236_31408)"/>
<path d="M21.8001 16.621C21.7805 16.6792 21.7411 16.7374 21.7017 16.7955C21.6033 16.9313 21.4458 16.9895 21.2686 16.9895C20.2055 16.9895 19.1425 16.9895 18.0794 16.9895C18.04 16.9895 18.0007 16.9895 17.9613 16.9895C17.9613 17.0283 17.9613 17.0671 17.9613 17.1058C17.9613 18.1531 17.9613 19.2004 17.9613 20.2477C17.9613 20.4998 17.8235 20.6937 17.5873 20.7519C17.5479 20.7713 17.4888 20.7713 17.4495 20.7713C17.1542 20.7713 16.8589 20.7713 16.5636 20.7713C16.2486 20.7713 16.0517 20.5774 16.0517 20.2671C16.0517 19.2198 16.0517 18.1725 16.0517 17.1252C16.0517 17.0864 16.0517 17.0477 16.0517 17.0089C16.0124 17.0089 15.973 17.0089 15.9336 17.0089C14.8705 17.0089 13.8075 17.0089 12.7444 17.0089C12.4885 17.0089 12.2916 16.8731 12.2326 16.6404C12.2129 16.6016 12.2129 16.5628 12.2129 16.5046C12.2129 16.2137 12.2129 15.9228 12.2129 15.6319C12.2129 15.3216 12.4098 15.1277 12.7247 15.1277C13.7878 15.1277 14.8509 15.1277 15.9139 15.1277C15.9533 15.1277 15.973 15.1277 16.032 15.1277C16.032 15.0889 16.032 15.0501 16.032 15.0113C16.032 14.0028 16.032 12.9749 16.032 11.9664C16.032 11.6755 16.1305 11.4622 16.4061 11.3652C16.7998 11.3652 17.1739 11.3652 17.5676 11.3652C17.8629 11.4622 17.9416 11.6755 17.9416 11.9664C17.9416 12.9749 17.9416 14.0028 17.9416 15.0113C17.9416 15.0501 17.9416 15.0889 17.9416 15.1277C18.0007 15.1277 18.0204 15.1277 18.0597 15.1277C19.1228 15.1277 20.1859 15.1277 21.2489 15.1277C21.4261 15.1277 21.5639 15.1858 21.682 15.3216C21.7214 15.3798 21.7411 15.438 21.7805 15.4961C21.8001 15.8646 21.8001 16.2331 21.8001 16.621Z" fill="#00B4CC"/>
<path d="M109.109 8.70676H107.869V22.5734C107.869 23.6789 106.944 24.571 105.822 24.5516C104.719 24.5322 103.853 23.6013 103.853 22.4959V15.3977C103.853 13.8849 102.613 12.6437 101.058 12.6437H99.8173V22.554C99.8173 23.6595 98.8921 24.5516 97.77 24.5322C96.6675 24.5128 95.8013 23.5819 95.8013 22.4765V11.4219C95.8013 9.90918 94.5611 8.66797 93.0059 8.66797H91.7656V22.5346C91.7656 23.2328 91.8837 23.8922 92.12 24.5128C92.7303 26.2001 94.0886 27.5383 95.8013 28.1395C96.4313 28.3528 97.1006 28.4886 97.8093 28.4886C98.518 28.4886 99.1874 28.3722 99.8173 28.1589C100.565 27.9068 101.254 27.4995 101.825 26.9758C102.416 27.4995 103.085 27.8874 103.833 28.1589C104.463 28.3722 105.133 28.508 105.841 28.508C106.55 28.508 107.219 28.3916 107.849 28.1783C109.562 27.5771 110.92 26.2389 111.531 24.5516C111.747 23.931 111.885 23.2716 111.885 22.5734V11.4413C111.905 9.94797 110.645 8.70676 109.109 8.70676Z" fill="url(#paint3_linear_7236_31408)"/>
<path d="M64.0669 8.70703H62.8267V28.5276H66.8427V11.461C66.8624 9.94824 65.6221 8.70703 64.0669 8.70703Z" fill="url(#paint4_linear_7236_31408)"/>
<path d="M138.285 3.54883H137.044V28.5282H141.06V6.30277C141.08 4.79004 139.84 3.54883 138.285 3.54883Z" fill="url(#paint5_linear_7236_31408)"/>
<path d="M59.303 12.6834C58.7321 11.927 58.0431 11.2676 57.295 10.7052C56.1335 9.83247 54.7555 9.21186 53.279 8.92095C52.6293 8.78519 51.96 8.72701 51.271 8.72701C50.5819 8.72701 49.9126 8.80459 49.263 8.92095V13.0325C49.8929 12.8191 50.5623 12.6834 51.271 12.6834C51.9797 12.6834 52.649 12.7997 53.279 13.0131C54.9917 13.6143 56.35 14.9525 56.9603 16.6397C57.1769 17.2603 57.295 17.9197 57.295 18.6179C57.295 19.3161 57.1769 19.9755 56.9406 20.5961C56.3304 22.2834 54.972 23.6216 53.2593 24.2228C52.6293 24.4361 51.96 24.5525 51.2513 24.5525C50.5426 24.5525 49.8732 24.4361 49.2433 24.2034C47.5306 23.6022 46.1722 22.264 45.5619 20.5767C45.3454 19.9561 45.2076 19.2967 45.2076 18.5985V6.30277C45.2076 4.79004 43.9476 3.54883 42.4121 3.54883H41.1719V18.6179C41.1719 19.2967 41.2309 19.9561 41.3687 20.5961C41.664 22.0506 42.294 23.4082 43.1799 24.5525C43.7508 25.3088 44.4398 25.9682 45.1879 26.5307C46.3494 27.4034 47.7274 28.024 49.2039 28.3149C49.8536 28.4507 50.5229 28.5088 51.2119 28.5088C51.9009 28.5088 52.5703 28.4507 53.2199 28.3149C54.6964 28.024 56.0744 27.4034 57.2359 26.5307C58.0037 25.9682 58.673 25.2894 59.2439 24.5525C60.1298 23.4082 60.7598 22.0506 61.0551 20.5961C61.1929 19.9561 61.252 19.2967 61.252 18.6179C61.252 17.9391 61.1732 17.2797 61.0551 16.6397C60.7992 15.1852 60.1692 13.8276 59.303 12.6834Z" fill="url(#paint6_linear_7236_31408)"/>
<path d="M78.8122 8.70703C73.2606 8.70703 68.7524 13.1482 68.7524 18.6173C68.7524 24.0864 73.2606 28.5276 78.8122 28.5276C84.3637 28.5276 88.8719 24.0864 88.8719 18.6173C88.8719 13.1482 84.3637 8.70703 78.8122 8.70703ZM78.8122 24.5713C75.4852 24.5713 72.7685 21.9143 72.7685 18.6173C72.7685 15.3398 75.4655 12.6634 78.8122 12.6634C82.1392 12.6634 84.8559 15.3204 84.8559 18.6173C84.8362 21.9143 82.1392 24.5713 78.8122 24.5713Z" fill="url(#paint7_linear_7236_31408)"/>
<path d="M133.934 16.6392C133.895 16.4646 133.855 16.2707 133.796 16.0961C133.776 16.0185 133.757 15.9216 133.717 15.844C133.717 15.8246 133.717 15.8052 133.698 15.7858C133.678 15.7276 133.658 15.6501 133.639 15.5919C133.599 15.4949 133.58 15.3979 133.54 15.301C133.363 14.7773 133.127 14.2731 132.851 13.8076C132.812 13.7301 132.753 13.6525 132.713 13.5749C132.674 13.4973 132.615 13.4198 132.576 13.3422C132.536 13.2646 132.477 13.187 132.418 13.1095C132.32 12.9543 132.221 12.8185 132.103 12.6634C132.024 12.5664 131.965 12.4695 131.887 12.3919C131.729 12.2173 131.591 12.0234 131.414 11.8682C131.335 11.7907 131.257 11.6937 131.178 11.6161C131.099 11.5385 131.001 11.461 130.922 11.3834C130.745 11.2282 130.568 11.0731 130.39 10.9179C130.292 10.8404 130.194 10.7628 130.115 10.7046C129.977 10.5882 129.82 10.4913 129.662 10.3943C129.583 10.3361 129.505 10.2973 129.426 10.2392C129.347 10.2004 129.268 10.1422 129.19 10.1034C129.111 10.0646 129.032 10.0064 128.953 9.96764C128.461 9.69612 127.969 9.48279 127.437 9.28885C127.339 9.25006 127.241 9.21127 127.142 9.19188C127.083 9.17249 127.004 9.15309 126.945 9.1337C126.926 9.1337 126.906 9.1337 126.886 9.11431C126.808 9.09491 126.729 9.07552 126.63 9.03673C126.453 8.99794 126.256 8.93976 126.079 8.90097C126 8.88158 125.922 8.86218 125.843 8.86218C125.272 8.76521 124.681 8.70703 124.071 8.70703C123.461 8.70703 122.87 8.76521 122.299 8.86218C122.221 8.88158 122.142 8.90097 122.063 8.90097C121.886 8.93976 121.689 8.97855 121.512 9.03673C121.335 9.07552 121.158 9.1337 120.98 9.19188C120.902 9.21127 120.803 9.25006 120.724 9.28885C120.37 9.40521 120.035 9.56037 119.701 9.71552C119.622 9.7543 119.543 9.79309 119.465 9.83188C119.366 9.87067 119.268 9.92885 119.169 9.98703L118.992 10.084C118.815 10.181 118.638 10.2973 118.48 10.3943C118.342 10.4913 118.205 10.5882 118.067 10.6852C117.968 10.7628 117.87 10.821 117.791 10.8985C117.693 10.9761 117.614 11.0343 117.516 11.1119C117.417 11.1895 117.319 11.2864 117.22 11.364C117.142 11.4416 117.063 11.5192 116.984 11.5967C116.925 11.6549 116.846 11.7325 116.787 11.7907C116.748 11.8295 116.689 11.8876 116.649 11.9458C116.59 12.004 116.551 12.0622 116.492 12.1204C116.433 12.1979 116.354 12.2755 116.295 12.3725C115.941 12.7992 115.645 13.2452 115.35 13.7107C115.311 13.7688 115.291 13.827 115.252 13.8852C115.212 13.9434 115.193 13.9822 115.173 14.0404C115.134 14.1179 115.094 14.1955 115.055 14.2731C115.055 14.2731 115.055 14.2925 115.035 14.3119C114.956 14.4476 114.897 14.6028 114.838 14.7579C114.838 14.7579 114.838 14.7773 114.819 14.7967C114.779 14.8743 114.74 14.9713 114.72 15.0488C114.7 15.107 114.661 15.1846 114.641 15.2622C114.622 15.3204 114.602 15.3785 114.582 15.4561C114.563 15.5337 114.523 15.6113 114.504 15.6888C114.484 15.7664 114.464 15.844 114.425 15.9216C114.346 16.1543 114.287 16.4064 114.248 16.6585C114.228 16.8137 114.189 16.9495 114.169 17.1046C114.09 17.6088 114.051 18.1131 114.051 18.6367C114.051 19.141 114.09 19.6452 114.169 20.1495C114.189 20.3046 114.228 20.4598 114.248 20.6149C114.267 20.7313 114.287 20.8282 114.326 20.9446C114.346 21.0222 114.366 21.0998 114.385 21.1579C114.405 21.2355 114.425 21.3325 114.445 21.4101C114.504 21.604 114.563 21.7785 114.622 21.9531C114.661 22.0307 114.681 22.1276 114.72 22.2052C114.74 22.2828 114.779 22.341 114.799 22.4185C114.878 22.6125 114.976 22.8258 115.074 23.0198C115.114 23.0779 115.134 23.1555 115.173 23.2137C115.212 23.2913 115.252 23.3495 115.291 23.427C115.311 23.4464 115.311 23.4852 115.33 23.5046C115.37 23.5628 115.389 23.621 115.429 23.6791C115.626 23.9895 115.823 24.2998 116.039 24.5907C116.118 24.6876 116.177 24.7652 116.256 24.8622C116.256 24.8622 116.256 24.8816 116.275 24.8816C116.354 24.9592 116.413 25.0561 116.492 25.1337C116.551 25.1919 116.59 25.2501 116.649 25.3082C116.689 25.3664 116.748 25.4052 116.787 25.4634C116.925 25.5992 117.043 25.7349 117.181 25.8513C117.22 25.8901 117.279 25.9482 117.338 25.987C117.397 26.0452 117.457 26.084 117.516 26.1422C117.594 26.2198 117.693 26.2779 117.771 26.3555C117.771 26.3555 117.791 26.3555 117.791 26.3749C117.87 26.4525 117.968 26.5107 118.067 26.5882C118.362 26.8016 118.657 27.0149 118.992 27.1895C119.051 27.2282 119.11 27.267 119.169 27.2864C119.268 27.3446 119.366 27.3834 119.465 27.4416C119.524 27.4804 119.602 27.4998 119.661 27.5385C119.858 27.6355 120.055 27.7325 120.272 27.8101C120.35 27.8488 120.409 27.8682 120.488 27.8876C120.567 27.9264 120.665 27.9458 120.744 27.9846C120.921 28.0428 121.118 28.101 121.295 28.1591C121.374 28.1785 121.453 28.1979 121.551 28.2173C121.63 28.2367 121.709 28.2561 121.768 28.2755C121.866 28.2949 121.984 28.3143 122.102 28.3531C122.26 28.3919 122.417 28.4113 122.575 28.4307C123.067 28.5082 123.579 28.547 124.11 28.547C124.642 28.547 125.154 28.5082 125.666 28.4307C125.823 28.4113 125.961 28.3725 126.119 28.3531C126.374 28.2949 126.611 28.2367 126.867 28.1785C126.945 28.1592 127.024 28.1398 127.103 28.101C127.182 28.0816 127.26 28.0622 127.339 28.0234C127.398 28.004 127.477 27.9846 127.536 27.9652C127.615 27.9458 127.674 27.907 127.752 27.8876C127.831 27.8488 127.93 27.8295 128.008 27.7907C128.008 27.7907 128.028 27.7907 128.048 27.7713C128.205 27.7131 128.343 27.6355 128.501 27.5773C128.501 27.5773 128.52 27.5773 128.54 27.5579C128.619 27.5191 128.697 27.4804 128.776 27.4416C128.835 27.4222 128.875 27.3834 128.934 27.364C128.993 27.3252 129.052 27.3058 129.111 27.267C129.603 26.9955 130.056 26.6852 130.469 26.3361C130.548 26.2779 130.646 26.2004 130.725 26.1422C130.784 26.084 130.843 26.0452 130.902 25.987C130.961 25.9482 131.001 25.8901 131.06 25.8513C131.139 25.7931 131.198 25.7155 131.257 25.6573C131.335 25.5798 131.414 25.5022 131.493 25.4246C131.591 25.3276 131.67 25.2307 131.749 25.1337C131.828 25.0561 131.906 24.9592 131.965 24.8622C132.044 24.7652 132.123 24.6876 132.182 24.5907C132.458 24.2222 132.713 23.8343 132.95 23.427H127.733C126.729 24.164 125.489 24.5907 124.15 24.5907C124.071 24.5907 123.992 24.5907 123.894 24.5907C123.815 24.5907 123.736 24.5907 123.677 24.5713C123.638 24.5713 123.579 24.5713 123.54 24.5519H123.52C123.441 24.5519 123.382 24.5325 123.303 24.5325C123.244 24.5325 123.185 24.5131 123.126 24.4937C123.106 24.4937 123.106 24.4937 123.087 24.4937C122.851 24.4549 122.614 24.3967 122.378 24.3191H122.358C122.28 24.2998 122.221 24.2804 122.142 24.2416C122.083 24.2222 122.043 24.2028 121.984 24.1834C121.866 24.1446 121.748 24.0864 121.63 24.0282C121.591 24.0088 121.551 23.9895 121.532 23.9895C121.197 23.8343 120.882 23.6404 120.587 23.427C120.567 23.4076 120.547 23.4076 120.528 23.3882C120.488 23.3495 120.429 23.3301 120.39 23.2913C120.331 23.2525 120.272 23.1943 120.213 23.1361C120.173 23.0973 120.134 23.0779 120.114 23.0392C119.976 22.9034 119.839 22.7676 119.701 22.6319C119.661 22.5931 119.642 22.5543 119.602 22.5349C119.543 22.4767 119.504 22.4185 119.445 22.3604C119.405 22.3216 119.386 22.2828 119.346 22.2246C119.11 21.9143 118.913 21.5846 118.736 21.2355C118.716 21.1967 118.697 21.1773 118.697 21.1385C118.638 21.0222 118.598 20.9058 118.539 20.7895C118.52 20.7313 118.5 20.6925 118.48 20.6343C118.461 20.5567 118.421 20.4985 118.401 20.421V20.4016C118.323 20.1688 118.283 19.9361 118.224 19.7034C118.224 19.684 118.224 19.684 118.224 19.6646C118.205 19.6064 118.205 19.5482 118.185 19.4707C118.185 19.4125 118.165 19.3349 118.165 19.2573V19.2379C118.165 19.1992 118.165 19.1604 118.146 19.1022C118.146 19.0246 118.126 18.947 118.126 18.8888C118.126 18.8113 118.126 18.7337 118.126 18.6367C118.126 18.5398 118.126 18.4622 118.126 18.3846C118.126 18.307 118.126 18.2295 118.146 18.1713C118.146 18.1325 118.146 18.0937 118.146 18.0549C118.146 17.9967 118.165 17.9385 118.165 17.8804C118.165 17.861 118.165 17.8416 118.165 17.8222C118.165 17.764 118.185 17.6864 118.205 17.6282C118.224 17.5313 118.244 17.4537 118.264 17.3567C118.283 17.2792 118.303 17.221 118.303 17.1628V17.1434C118.323 17.0852 118.342 17.027 118.362 16.9688C118.579 16.2319 118.953 15.5337 119.445 14.9519C119.484 14.9131 119.524 14.8743 119.543 14.8161C119.72 14.6222 119.898 14.4282 120.094 14.2537C120.134 14.2149 120.173 14.1955 120.193 14.1567C120.331 14.021 120.488 13.9046 120.646 13.8076C120.724 13.7495 120.803 13.6913 120.882 13.6525C121.079 13.5361 121.276 13.4198 121.492 13.3034C121.532 13.284 121.551 13.2646 121.591 13.2646C121.709 13.2064 121.827 13.1676 121.945 13.1095C122.004 13.0901 122.043 13.0707 122.102 13.0513C122.181 13.0319 122.24 12.9931 122.319 12.9737H122.339C122.575 12.8961 122.811 12.8379 123.047 12.7992C123.067 12.7992 123.067 12.7992 123.087 12.7992C123.146 12.7798 123.205 12.7798 123.264 12.7798C123.343 12.7604 123.402 12.7604 123.481 12.7604H123.5C123.54 12.7604 123.579 12.7604 123.638 12.741C123.717 12.741 123.796 12.7216 123.855 12.7216C123.933 12.7216 124.012 12.7216 124.11 12.7216C124.209 12.7216 124.288 12.7216 124.366 12.7216C124.445 12.7216 124.524 12.7216 124.583 12.741C124.622 12.741 124.662 12.741 124.701 12.741C124.76 12.741 124.819 12.7604 124.878 12.7604C124.898 12.7604 124.918 12.7604 124.937 12.7604C124.996 12.7604 125.075 12.7798 125.134 12.7992C125.233 12.8185 125.311 12.8379 125.41 12.8573C125.489 12.8767 125.548 12.8961 125.607 12.8961H125.626C125.685 12.9155 125.744 12.9349 125.804 12.9543C126.552 13.1676 127.26 13.5361 127.851 14.021C127.89 14.0598 127.93 14.0792 127.989 14.1179C128.245 14.3313 128.481 14.564 128.697 14.8161C128.737 14.8549 128.776 14.8937 128.796 14.9519C129.209 15.4755 129.544 16.0573 129.78 16.6779H122.083C122.083 18.8695 123.874 20.6343 126.099 20.6343H133.954C133.973 20.5567 133.993 20.4792 133.993 20.4016C134.091 19.8392 134.151 19.2573 134.151 18.6561C134.151 18.0549 134.091 17.4731 133.993 16.9107C133.973 16.8137 133.954 16.7167 133.934 16.6392Z" fill="url(#paint8_linear_7236_31408)"/>
<defs>
<linearGradient id="paint0_linear_7236_31408" x1="-5.99965" y1="4.63339" x2="15.6387" y2="19.5328" gradientUnits="userSpaceOnUse">
<stop stop-color="#003F80"/>
<stop offset="1" stop-color="#00B3CC"/>
</linearGradient>
<linearGradient id="paint1_linear_7236_31408" x1="16.7228" y1="34.9783" x2="17.1526" y2="11.7256" gradientUnits="userSpaceOnUse">
<stop stop-color="#003F80"/>
<stop offset="0.655463" stop-color="#00B3CC"/>
</linearGradient>
<linearGradient id="paint2_linear_7236_31408" x1="33.7366" y1="3.08966" x2="11.6985" y2="-0.0877368" gradientUnits="userSpaceOnUse">
<stop stop-color="#003F80"/>
<stop offset="1" stop-color="#00B3CC"/>
</linearGradient>
<linearGradient id="paint3_linear_7236_31408" x1="38.5496" y1="18.5368" x2="143.443" y2="23.2498" gradientUnits="userSpaceOnUse">
<stop offset="0.00370113" stop-color="#003F80"/>
<stop offset="1" stop-color="#00B3CC"/>
</linearGradient>
<linearGradient id="paint4_linear_7236_31408" x1="30.9381" y1="16.4406" x2="142.001" y2="45.219" gradientUnits="userSpaceOnUse">
<stop stop-color="#003F80"/>
<stop offset="0.00370113" stop-color="#003F80"/>
<stop offset="1" stop-color="#01A0F6"/>
<stop offset="1" stop-color="#00B3CC"/>
</linearGradient>
<linearGradient id="paint5_linear_7236_31408" x1="38.7738" y1="17.7653" x2="133.622" y2="44.5124" gradientUnits="userSpaceOnUse">
<stop stop-color="#003F80"/>
<stop offset="0.00370113" stop-color="#005DBF"/>
<stop offset="1" stop-color="#00B3CC"/>
</linearGradient>
<linearGradient id="paint6_linear_7236_31408" x1="38.2146" y1="17.4127" x2="147.203" y2="23.7652" gradientUnits="userSpaceOnUse">
<stop stop-color="#003F80"/>
<stop offset="1" stop-color="#00B3CC"/>
</linearGradient>
<linearGradient id="paint7_linear_7236_31408" x1="38.5497" y1="18.5371" x2="143.38" y2="24.6045" gradientUnits="userSpaceOnUse">
<stop offset="0.00370113" stop-color="#003F80"/>
<stop offset="1" stop-color="#00B3CC"/>
</linearGradient>
<linearGradient id="paint8_linear_7236_31408" x1="40.9003" y1="18.5371" x2="141.325" y2="23.0544" gradientUnits="userSpaceOnUse">
<stop stop-color="#003F80"/>
<stop offset="0.00370113" stop-color="#003F80"/>
<stop offset="1" stop-color="#00B3CC"/>
</linearGradient>
</defs>
</svg>
